<!DOCTYPE svg PUBLIC "-//W3C//DTD SVG 1.1//EN" "http://www.w3.org/Graphics/SVG/1.1/DTD/svg11.dtd">
<!-- Uploaded to: SVG Repo, www.svgrepo.com, Transformed by: SVG Repo Mixer Tools -->
<svg fill="#ffffff" height="800px" width="800px" version="1.1" id="Capa_1" xmlns="http://www.w3.org/2000/svg" xmlns:xlink="http://www.w3.org/1999/xlink" viewBox="-48.98 -48.98 587.76 587.76" xml:space="preserve">
<g id="SVGRepo_bgCarrier" stroke-width="0">
<rect x="-48.98" y="-48.98" width="587.76" height="587.76" rx="293.88" fill="#FA5A7D" strokewidth="0"/>
</g>
<g id="SVGRepo_tracerCarrier" stroke-linecap="round" stroke-linejoin="round"/>
<g id="SVGRepo_iconCarrier"> <g> <g> <g> <path d="M244.9,0C109.8,0,0,109.8,0,244.9s109.9,244.9,244.9,244.9c135.1,0,244.9-109.9,244.9-244.9C489.8,109.8,380,0,244.9,0z M244.9,455.5c-116.1,0-210.6-94.5-210.6-210.6S128.8,34.3,244.9,34.3s210.6,94.5,210.6,210.6S361,455.5,244.9,455.5z"/> <path d="M375.9,230.5L200.1,117.7c-5.3-3.4-12-3.6-17.5-0.6s-8.9,8.8-8.9,15v225.5c0,6.3,3.4,12,8.9,15c2.6,1.4,5.4,2.1,8.2,2.1 c3.2,0,6.4-0.9,9.3-2.7l175.8-112.7c4.9-3.2,7.9-8.6,7.9-14.4C383.7,239.1,380.8,233.6,375.9,230.5z M207.9,326.3V163.5 l126.9,81.4L207.9,326.3z"/> </g> </g> <g> </g> <g> </g> <g> </g> <g> </g> <g> </g> <g> </g> <g> </g> <g> </g> <g> </g> <g> </g> <g> </g> <g> </g> <g> </g> <g> </g> <g> </g> </g> </g>
</svg>